<mxfile host="app.diagrams.net" agent="Mozilla/5.0 (Windows NT 10.0; Win64; x64) AppleWebKit/537.36 (KHTML, like Gecko) Chrome/134.0.0.0 Safari/537.36" version="26.1.3">
  <diagram name="Página-1" id="YxhbBEmgIP0uJEjZGHPe">
    <mxGraphModel dx="989" dy="542" grid="1" gridSize="10" guides="1" tooltips="1" connect="1" arrows="1" fold="1" page="1" pageScale="1" pageWidth="827" pageHeight="1169" background="#202020" math="0" shadow="0">
      <root>
        <mxCell id="0" />
        <mxCell id="1" parent="0" />
        <mxCell id="qiUgwwKjVemnB6bvXaoM-1" value="Usuario" style="shape=umlActor;verticalLabelPosition=bottom;verticalAlign=top;html=1;outlineConnect=0;strokeColor=#d79b00;fillColor=#ffe6cc;fontColor=#FFFFFF;" vertex="1" parent="1">
          <mxGeometry x="120" y="545" width="30" height="60" as="geometry" />
        </mxCell>
        <mxCell id="qiUgwwKjVemnB6bvXaoM-4" value="Iniciar sesión" style="ellipse;whiteSpace=wrap;html=1;strokeColor=#d79b00;fillColor=#ffe6cc;fontColor=#FF8000;labelBorderColor=none;" vertex="1" parent="1">
          <mxGeometry x="380" y="545" width="100" height="60" as="geometry" />
        </mxCell>
        <mxCell id="qiUgwwKjVemnB6bvXaoM-5" value="" style="endArrow=classic;html=1;rounded=0;entryX=0;entryY=0.5;entryDx=0;entryDy=0;strokeColor=#d79b00;fillColor=#ffe6cc;fontColor=#FFFFFF;" edge="1" parent="1" source="qiUgwwKjVemnB6bvXaoM-1" target="qiUgwwKjVemnB6bvXaoM-4">
          <mxGeometry width="50" height="50" relative="1" as="geometry">
            <mxPoint x="540" y="655" as="sourcePoint" />
            <mxPoint x="590" y="605" as="targetPoint" />
          </mxGeometry>
        </mxCell>
        <mxCell id="qiUgwwKjVemnB6bvXaoM-6" value="Acceder a la carta" style="ellipse;whiteSpace=wrap;html=1;strokeColor=#d79b00;fillColor=#ffe6cc;fontColor=#FF8000;labelBorderColor=none;" vertex="1" parent="1">
          <mxGeometry x="500" y="420" width="120" height="60" as="geometry" />
        </mxCell>
        <mxCell id="qiUgwwKjVemnB6bvXaoM-7" value="" style="endArrow=classic;html=1;rounded=0;entryX=0.097;entryY=0.817;entryDx=0;entryDy=0;strokeColor=#d79b00;fillColor=#ffe6cc;fontColor=#FF8000;labelBorderColor=none;exitX=1;exitY=0;exitDx=0;exitDy=0;entryPerimeter=0;" edge="1" parent="1" source="qiUgwwKjVemnB6bvXaoM-4" target="qiUgwwKjVemnB6bvXaoM-6">
          <mxGeometry width="50" height="50" relative="1" as="geometry">
            <mxPoint x="600" y="605" as="sourcePoint" />
            <mxPoint x="650" y="555" as="targetPoint" />
          </mxGeometry>
        </mxCell>
        <mxCell id="qiUgwwKjVemnB6bvXaoM-28" value="crear una cuenta" style="ellipse;whiteSpace=wrap;html=1;strokeColor=#d79b00;fillColor=#ffe6cc;fontColor=#FF8000;labelBorderColor=none;" vertex="1" parent="1">
          <mxGeometry x="210" y="540" width="110" height="70" as="geometry" />
        </mxCell>
        <mxCell id="qiUgwwKjVemnB6bvXaoM-33" value="Acceder a los catalogos" style="ellipse;whiteSpace=wrap;html=1;strokeColor=#d79b00;fillColor=#ffe6cc;fontColor=#FF8000;labelBorderColor=none;" vertex="1" parent="1">
          <mxGeometry x="530" y="500" width="120" height="60" as="geometry" />
        </mxCell>
        <mxCell id="qiUgwwKjVemnB6bvXaoM-34" value="Acceder a las sucursales" style="ellipse;whiteSpace=wrap;html=1;strokeColor=#d79b00;fillColor=#ffe6cc;fontColor=#FF8000;labelBorderColor=none;" vertex="1" parent="1">
          <mxGeometry x="560" y="570" width="120" height="60" as="geometry" />
        </mxCell>
        <mxCell id="qiUgwwKjVemnB6bvXaoM-35" value="Realizar pedidos" style="ellipse;whiteSpace=wrap;html=1;strokeColor=#d79b00;fillColor=#ffe6cc;fontColor=#FF8000;labelBorderColor=none;" vertex="1" parent="1">
          <mxGeometry x="490" y="640" width="120" height="60" as="geometry" />
        </mxCell>
        <mxCell id="qiUgwwKjVemnB6bvXaoM-36" value="Acceder a mis pedidos" style="ellipse;whiteSpace=wrap;html=1;strokeColor=#d79b00;fillColor=#ffe6cc;fontColor=#FF8000;labelBorderColor=none;" vertex="1" parent="1">
          <mxGeometry x="630" y="710" width="120" height="60" as="geometry" />
        </mxCell>
        <mxCell id="qiUgwwKjVemnB6bvXaoM-37" value="" style="endArrow=classic;html=1;rounded=0;exitX=1.013;exitY=0.401;exitDx=0;exitDy=0;exitPerimeter=0;entryX=0;entryY=0.5;entryDx=0;entryDy=0;fillColor=#ffe6cc;strokeColor=#d79b00;" edge="1" parent="1" source="qiUgwwKjVemnB6bvXaoM-4" target="qiUgwwKjVemnB6bvXaoM-33">
          <mxGeometry width="50" height="50" relative="1" as="geometry">
            <mxPoint x="470" y="620" as="sourcePoint" />
            <mxPoint x="520" y="570" as="targetPoint" />
          </mxGeometry>
        </mxCell>
        <mxCell id="qiUgwwKjVemnB6bvXaoM-38" value="" style="endArrow=classic;html=1;rounded=0;fillColor=#ffe6cc;strokeColor=#d79b00;" edge="1" parent="1" target="qiUgwwKjVemnB6bvXaoM-34">
          <mxGeometry width="50" height="50" relative="1" as="geometry">
            <mxPoint x="480" y="582" as="sourcePoint" />
            <mxPoint x="520" y="570" as="targetPoint" />
          </mxGeometry>
        </mxCell>
        <mxCell id="qiUgwwKjVemnB6bvXaoM-39" value="" style="endArrow=classic;html=1;rounded=0;entryX=0.204;entryY=0.093;entryDx=0;entryDy=0;entryPerimeter=0;exitX=0.958;exitY=0.745;exitDx=0;exitDy=0;exitPerimeter=0;fillColor=#ffe6cc;strokeColor=#d79b00;" edge="1" parent="1" source="qiUgwwKjVemnB6bvXaoM-4" target="qiUgwwKjVemnB6bvXaoM-35">
          <mxGeometry width="50" height="50" relative="1" as="geometry">
            <mxPoint x="470" y="620" as="sourcePoint" />
            <mxPoint x="520" y="570" as="targetPoint" />
          </mxGeometry>
        </mxCell>
        <mxCell id="qiUgwwKjVemnB6bvXaoM-40" value="" style="endArrow=classic;html=1;rounded=0;exitX=0.991;exitY=0.622;exitDx=0;exitDy=0;exitPerimeter=0;entryX=0.106;entryY=0.191;entryDx=0;entryDy=0;entryPerimeter=0;fillColor=#ffe6cc;strokeColor=#d79b00;" edge="1" parent="1" source="qiUgwwKjVemnB6bvXaoM-35" target="qiUgwwKjVemnB6bvXaoM-36">
          <mxGeometry width="50" height="50" relative="1" as="geometry">
            <mxPoint x="470" y="620" as="sourcePoint" />
            <mxPoint x="520" y="570" as="targetPoint" />
          </mxGeometry>
        </mxCell>
      </root>
    </mxGraphModel>
  </diagram>
</mxfile>
